<svg version="1.1" x="0px" y="0px" viewBox="0 0 200 148.1" style="enable-background:new 0 0 200 148.1;" xml:space="preserve">
	<polygon points="173.8,1.4 127.2,13.2 128.3,17.9 170.3,7.3 193.6,99.5 29.7,140.9 6.4,48.6 48.4,38 47.2,33.3 0.5,45.1 26.2,146.7 199.5,103 "/>
	<path d="M33,72.6l1.6-12.3l4.2-1.1l-2.6,19.3L33,79.4L21.5,63.7l4.2-1.1L33,72.6z"/>
	<path d="M40.9,58.8l3.9-1l4.4,17.5l-3.9,1L40.9,58.8z"/>
	<path d="M67.7,68.1c-1.3,2.2-3.3,3.6-5.9,4.2c-2.6,0.7-5,0.3-7.2-0.9c-2.2-1.3-3.6-3.2-4.3-5.8c-0.6-2.6-0.3-4.9,1-7.1 c1.3-2.2,3.3-3.6,5.9-4.2c2.6-0.7,5-0.3,7.2,0.9c2.2,1.3,3.6,3.2,4.3,5.8C69.3,63.5,69,65.9,67.7,68.1z M64.7,62 c-0.4-1.6-1.2-2.8-2.5-3.6c-1.3-0.8-2.6-1.1-4.1-0.7s-2.6,1.2-3.3,2.6c-0.7,1.4-0.9,2.8-0.5,4.4c0.4,1.6,1.2,2.8,2.5,3.6 c1.3,0.8,2.6,1.1,4.1,0.7c1.5-0.4,2.6-1.2,3.3-2.6C64.9,65,65.1,63.5,64.7,62z"/>
	<path d="M74.2,69l-4.4-17.5l3.9-1l3.5,14l7.5-1.9l0.9,3.5L74.2,69z"/>
	<path d="M96.6,44.7l0.9,3.5l-8.7,2.2l0.9,3.6l7.8-2l0.8,3.3l-7.8,2l0.9,3.6l9-2.3l0.9,3.5l-12.9,3.3L84,47.9L96.6,44.7z M87.4,45.2L84.3,46l1.8-4.7l4.7-1.2l3.8,3.2l-3.1,0.8L89,42.6L87.4,45.2z"/>
	<path d="M112.6,40.7l3.9-1l4.4,17.5l-3.9,1l-11.1-8.9l2.8,11l-3.9,1l-4.4-17.5l3.7-0.9l11.4,9.1L112.6,40.7z"/>
	<path d="M132.4,50.6c1.9-0.5,3.3-1.6,4.1-3.5l3.2,1.9c-1.4,2.7-3.5,4.4-6.2,5.1c-2.7,0.7-5.1,0.4-7.3-0.9 c-2.2-1.3-3.6-3.2-4.2-5.8c-0.7-2.6-0.3-5,1-7.2c1.3-2.2,3.3-3.6,5.9-4.2c2.9-0.7,5.5-0.2,8,1.5l-1.7,3.4 c-1.6-1.2-3.3-1.6-5.2-1.1c-1.5,0.4-2.6,1.2-3.4,2.4c-0.8,1.2-1,2.6-0.6,4.3c0.4,1.6,1.2,2.8,2.5,3.5 C129.7,50.8,131,51,132.4,50.6z"/>
	<path d="M139.1,34l3.9-1l4.4,17.5l-3.9,1L139.1,34z"/>
	<path d="M164.2,46.3l-2.6-3.4l-7.3,1.8l-0.7,4.2l-4.2,1l3.1-19.4l3.8-1l12,15.6L164.2,46.3z M155.8,35.3l-0.9,5.6l4.4-1.1 L155.8,35.3z"/>
	<path d="M52.2,109.4l-2.3,10.7l-2.3,0.6l-7.1-8.4l2.8,11l-3.9,1l-4.4-17.5l5.3-1.3l6.9,8.5l2.1-10.7l5.3-1.3l4.4,17.5l-3.9,1 L52.2,109.4z"/>
	<path d="M66.6,112.6c0.9,0.6,1.8,0.8,2.9,0.6c1.1-0.3,1.9-0.9,2.3-1.9c0.4-1,0.5-2.2,0.1-3.6l-2.4-9.7l3.9-1l2.5,9.8 c0.6,2.5,0.4,4.7-0.6,6.4c-1.1,1.7-2.7,2.8-4.9,3.4c-2.2,0.6-4.2,0.3-5.9-0.7c-1.8-1-2.9-2.8-3.6-5.3l-2.5-9.8l3.9-1l2.4,9.7 C65.2,111,65.8,112,66.6,112.6z"/>
	<path d="M81.9,113.6l-4.4-17.5l3.9-1l3.5,14l7.5-1.9l0.9,3.5L81.9,113.6z"/>
	<path d="M102.6,89.8l3.9-1l4.4,17.5l-3.9,1l-1.7-6.9l-7,1.8l1.7,6.9l-3.9,1l-4.4-17.5l3.9-1l1.8,7.3l7-1.8L102.6,89.8z"/>
	<path d="M123.4,84.5l0.9,3.5l-8.7,2.2l0.9,3.6l7.8-2l0.8,3.3l-7.8,2l0.9,3.6l9-2.3l0.9,3.5l-12.9,3.2l-4.4-17.5L123.4,84.5z"/>
	<path d="M142.8,85.8c0.7,2.8,0.1,4.9-2,6.3l6,5.1l-4.8,1.2l-5.3-4.6l-2.7,0.7l1.4,5.6l-3.9,1l-4.4-17.5l6.6-1.7 c2.7-0.7,4.8-0.7,6.2-0.1C141.3,82.4,142.3,83.8,142.8,85.8z M138.6,89c0.4-0.6,0.4-1.3,0.2-2.2c-0.2-0.9-0.7-1.5-1.2-1.7 c-0.6-0.2-1.5-0.2-2.8,0.1l-2.9,0.7l1.3,5.2l2.9-0.7C137.4,90.1,138.3,89.6,138.6,89z"/>
	<path d="M158,75.8l0.9,3.5l-8.7,2.2l0.9,3.6l7.8-2l0.8,3.3l-7.8,2l0.9,3.6l9-2.3l0.9,3.5l-12.9,3.2L145.3,79L158,75.8z"/>
	<path d="M166.7,77.3c-0.3,0.4-0.4,0.9-0.3,1.4c0.1,0.5,0.5,0.9,1,1c0.5,0.2,1.7,0.3,3.4,0.3c1.8,0,3.2,0.3,4.3,0.9 c1.1,0.6,1.9,1.7,2.3,3.2c0.4,1.6,0.1,3-0.8,4.3c-0.9,1.3-2.4,2.2-4.3,2.6c-2.8,0.7-5.5,0.3-8.3-1.2l1.6-3.4 c2.3,1.2,4.3,1.6,5.9,1.2c0.7-0.2,1.2-0.5,1.6-0.9c0.3-0.4,0.4-0.9,0.3-1.4c-0.1-0.5-0.5-0.9-1-1.1c-0.5-0.2-1.4-0.3-2.8-0.3 c-2.2,0-3.8-0.2-4.9-0.8c-1.1-0.5-1.9-1.6-2.3-3.3c-0.4-1.7-0.1-3.1,0.8-4.3c1-1.2,2.3-2,4.1-2.5c1.2-0.3,2.4-0.4,3.7-0.3 c1.3,0.1,2.4,0.4,3.5,0.9l-1.3,3.3c-1.8-0.8-3.5-0.9-5.1-0.5C167.4,76.6,167,76.9,166.7,77.3z"/>
	<path d="M40.8,97.1c1.9-0.5,3.3-1.6,4.1-3.5l3.2,1.9c-1.4,2.7-3.5,4.4-6.2,5.1c-2.7,0.7-5.1,0.4-7.3-0.9c-2.2-1.3-3.6-3.2-4.2-5.8 c-0.7-2.6-0.3-5,1-7.2c1.3-2.2,3.3-3.6,5.9-4.2c2.9-0.7,5.5-0.2,8,1.5l-1.7,3.4c-1.6-1.2-3.3-1.6-5.2-1.1 c-1.5,0.4-2.6,1.2-3.4,2.4c-0.8,1.2-1,2.6-0.6,4.3c0.4,1.6,1.2,2.8,2.5,3.5C38.1,97.3,39.4,97.5,40.8,97.1z"/>
	<path d="M64.7,92.2c-1.3,2.2-3.3,3.6-5.9,4.2c-2.6,0.7-5,0.3-7.2-0.9c-2.2-1.3-3.6-3.2-4.3-5.8c-0.6-2.6-0.3-4.9,1-7.1 c1.3-2.2,3.3-3.6,5.9-4.2c2.6-0.7,5-0.3,7.2,0.9c2.2,1.3,3.6,3.2,4.3,5.8C66.4,87.7,66,90,64.7,92.2z M61.8,86.1 c-0.4-1.6-1.2-2.8-2.5-3.6c-1.3-0.8-2.6-1.1-4.1-0.7c-1.5,0.4-2.6,1.2-3.3,2.6c-0.7,1.4-0.9,2.8-0.5,4.4c0.4,1.6,1.2,2.8,2.5,3.6 c1.3,0.8,2.6,1.1,4.1,0.7c1.5-0.4,2.6-1.2,3.3-2.6C62,89.1,62.1,87.7,61.8,86.1z"/>
	<path d="M78.1,72.8l3.9-1l4.4,17.5l-3.9,1l-11.1-8.9l2.8,11l-3.9,1l-4.4-17.5l3.7-0.9l11.4,9.1L78.1,72.8z"/>
	<path d="M93.5,72.5l3.6,14.1l-3.9,1l-3.6-14.1l-5,1.2l-0.9-3.4l13.8-3.5l0.9,3.4L93.5,72.5z"/>
	<path d="M115.1,69.6c0.7,2.8,0.1,4.9-2,6.3l6,5.1l-4.8,1.2l-5.3-4.6l-2.7,0.7l1.4,5.6l-3.9,1l-4.4-17.5l6.6-1.7 c2.7-0.7,4.8-0.7,6.2-0.1C113.7,66.3,114.6,67.6,115.1,69.6z M111,72.9c0.4-0.6,0.4-1.3,0.2-2.2c-0.2-0.9-0.7-1.5-1.2-1.7 c-0.6-0.2-1.5-0.2-2.8,0.1l-2.9,0.7l1.3,5.2l2.9-0.7C109.7,73.9,110.6,73.5,111,72.9z"/>
	<path d="M133.5,77.4L131,74l-7.3,1.8l-0.7,4.2l-4.2,1l3.1-19.4l3.8-1l12,15.6L133.5,77.4z M125.2,66.5l-0.9,5.6l4.4-1.1 L125.2,66.5z"/>
	<path d="M156.8,71.6l-2.6-3.4l-7.3,1.8l-0.7,4.2l-4.2,1l3.1-19.4l3.8-1l12,15.6L156.8,71.6z M148.4,60.6l-0.9,5.6l4.4-1.1 L148.4,60.6z"/>
	<path d="M162.4,55.3c-0.3,0.4-0.4,0.9-0.3,1.4c0.1,0.5,0.5,0.9,1,1c0.5,0.2,1.7,0.3,3.4,0.3c1.8,0,3.2,0.3,4.3,0.9 c1.1,0.6,1.9,1.7,2.3,3.2c0.4,1.6,0.1,3-0.8,4.3c-0.9,1.3-2.4,2.2-4.3,2.6c-2.8,0.7-5.5,0.3-8.3-1.2l1.6-3.4 c2.3,1.2,4.3,1.6,5.9,1.2c0.7-0.2,1.2-0.5,1.6-0.9c0.3-0.4,0.4-0.9,0.3-1.4c-0.1-0.5-0.5-0.9-1-1.1c-0.5-0.2-1.4-0.3-2.8-0.3 c-2.2,0-3.8-0.2-4.9-0.8c-1.1-0.5-1.9-1.6-2.3-3.3c-0.4-1.7-0.1-3.1,0.8-4.3c1-1.2,2.3-2,4.1-2.5c1.2-0.3,2.4-0.4,3.7-0.3 c1.3,0.1,2.4,0.4,3.5,0.9l-1.3,3.3c-1.8-0.8-3.5-0.9-5.1-0.5C163.2,54.6,162.7,54.8,162.4,55.3z"/>
	<path d="M68.7,35.3c-0.3,0.1-0.6,0.1-0.7-0.1c-0.2-0.1-0.3-0.3-0.3-0.5l-0.3-1.6c-0.3,0.9-0.8,1.7-1.3,2.3c-0.5,0.6-1.2,1-1.9,1.2 c-0.5,0.1-0.9,0.1-1.3,0.1c-0.4-0.1-0.8-0.2-1.1-0.5c-0.3-0.3-0.7-0.6-0.9-1.1c-0.3-0.5-0.5-1.1-0.7-1.8c-0.2-0.6-0.2-1.2-0.3-1.9 c0-0.6,0-1.2,0.1-1.8c0.1-0.6,0.3-1.2,0.5-1.7c0.2-0.5,0.5-1,0.8-1.4c0.3-0.4,0.7-0.8,1.1-1.1c0.4-0.3,0.8-0.5,1.3-0.6 c0.5-0.1,1-0.1,1.4-0.1c0.4,0.1,0.9,0.2,1.2,0.5l-0.7-5.9l2.6-0.7l2,16.3L68.7,35.3z M64.6,34.3c0.3-0.1,0.6-0.2,0.8-0.5 c0.2-0.3,0.5-0.6,0.7-1c0.2-0.4,0.3-0.9,0.5-1.4c0.1-0.5,0.2-1.1,0.2-1.7L66.4,27c-0.3-0.2-0.6-0.3-1-0.3c-0.3,0-0.7,0-1,0.1 c-0.5,0.1-0.9,0.4-1.2,0.8c-0.3,0.4-0.5,0.9-0.7,1.4c-0.2,0.5-0.2,1.1-0.2,1.7c0,0.6,0.1,1.2,0.2,1.8c0.2,0.8,0.5,1.3,0.8,1.6 C63.8,34.4,64.2,34.5,64.6,34.3z"/>
	<path d="M77.2,33.4c-0.6,0.2-1.2,0.2-1.8,0.1c-0.6-0.1-1.1-0.3-1.6-0.6c-0.5-0.3-0.9-0.7-1.2-1.2c-0.4-0.5-0.6-1.1-0.8-1.9 c-0.2-0.9-0.3-1.9-0.2-2.8c0.1-0.9,0.3-1.7,0.7-2.4c0.4-0.7,0.9-1.4,1.5-1.9c0.6-0.5,1.3-0.9,2.1-1.1c0.6-0.2,1.2-0.2,1.8-0.1 c0.6,0.1,1.1,0.3,1.6,0.6c0.5,0.3,0.9,0.7,1.2,1.2c0.4,0.5,0.6,1.1,0.8,1.9c0.2,0.9,0.3,1.9,0.2,2.7c-0.1,0.9-0.3,1.7-0.7,2.4 c-0.4,0.7-0.9,1.4-1.5,1.9C78.7,32.8,78,33.2,77.2,33.4z M76.9,31.3c0.4-0.1,0.8-0.3,1.1-0.7c0.3-0.3,0.5-0.8,0.7-1.2 c0.1-0.5,0.2-1,0.2-1.6c0-0.6-0.1-1.2-0.2-1.8c-0.2-0.9-0.5-1.5-0.9-1.8c-0.4-0.3-0.9-0.4-1.5-0.3c-0.4,0.1-0.8,0.3-1.1,0.7 c-0.3,0.3-0.5,0.8-0.6,1.2c-0.1,0.5-0.2,1-0.2,1.6c0,0.6,0.1,1.2,0.2,1.8c0.2,0.9,0.5,1.5,0.9,1.8C75.8,31.3,76.3,31.4,76.9,31.3z "/>
	<path d="M89.4,20.7c0,0.1-0.1,0.2-0.2,0.3c-0.1,0.1-0.1,0.1-0.3,0.1c-0.1,0-0.3,0-0.4,0c-0.1,0-0.3-0.1-0.5-0.1 c-0.2,0-0.4-0.1-0.6-0.1c-0.2,0-0.5,0-0.8,0.1c-0.6,0.1-1,0.4-1.2,0.7c-0.2,0.3-0.3,0.7-0.2,1.1c0.1,0.2,0.2,0.4,0.3,0.5 c0.2,0.1,0.4,0.2,0.6,0.3c0.2,0.1,0.5,0.1,0.8,0.1c0.3,0,0.6,0.1,0.9,0.1c0.3,0,0.6,0.1,0.9,0.2c0.3,0.1,0.6,0.2,0.8,0.3 c0.2,0.1,0.5,0.3,0.7,0.6c0.2,0.3,0.3,0.6,0.4,1c0.1,0.5,0.2,1.1,0.1,1.6c-0.1,0.5-0.3,1-0.6,1.5c-0.3,0.5-0.7,0.9-1.2,1.2 c-0.5,0.3-1.1,0.6-1.8,0.8C86.7,31,86.4,31,86,31c-0.3,0-0.7,0-1-0.1c-0.3,0-0.6-0.1-0.9-0.2c-0.3-0.1-0.5-0.2-0.7-0.4l0.4-1.2 c0-0.1,0.1-0.3,0.2-0.3c0.1-0.1,0.2-0.2,0.4-0.2c0.2,0,0.3,0,0.4,0c0.1,0.1,0.3,0.1,0.5,0.2c0.2,0.1,0.4,0.1,0.7,0.2 c0.3,0,0.6,0,0.9-0.1c0.3-0.1,0.5-0.2,0.7-0.3c0.2-0.1,0.4-0.3,0.5-0.5c0.1-0.2,0.2-0.4,0.2-0.6c0-0.2,0-0.4,0-0.6 c-0.1-0.2-0.2-0.4-0.3-0.6c-0.2-0.1-0.4-0.2-0.6-0.3c-0.2-0.1-0.5-0.1-0.8-0.1c-0.3,0-0.6-0.1-0.9-0.1c-0.3,0-0.6-0.1-0.9-0.1 c-0.3-0.1-0.6-0.2-0.8-0.3c-0.3-0.1-0.5-0.3-0.7-0.6c-0.2-0.3-0.3-0.6-0.4-1c-0.1-0.5-0.1-1-0.1-1.5c0.1-0.5,0.2-1,0.5-1.4 c0.3-0.4,0.6-0.8,1.1-1.2c0.5-0.3,1-0.6,1.7-0.8c0.7-0.2,1.3-0.2,1.9-0.1c0.6,0.1,1.1,0.3,1.6,0.6L89.4,20.7z"/>
	<path d="M98.2,18.4c0,0.1-0.1,0.2-0.2,0.3c-0.1,0.1-0.1,0.1-0.3,0.1c-0.1,0-0.3,0-0.4,0c-0.1,0-0.3-0.1-0.5-0.1 c-0.2,0-0.4-0.1-0.6-0.1c-0.2,0-0.5,0-0.8,0.1c-0.6,0.1-1,0.4-1.2,0.7c-0.2,0.3-0.3,0.7-0.2,1.1c0.1,0.2,0.2,0.4,0.3,0.5 c0.2,0.1,0.4,0.2,0.6,0.3c0.2,0.1,0.5,0.1,0.8,0.1c0.3,0,0.6,0.1,0.9,0.1c0.3,0,0.6,0.1,0.9,0.2c0.3,0.1,0.6,0.2,0.8,0.3 c0.2,0.1,0.5,0.3,0.7,0.6c0.2,0.2,0.3,0.6,0.4,1c0.1,0.5,0.2,1.1,0.1,1.6c-0.1,0.5-0.3,1-0.6,1.5c-0.3,0.5-0.7,0.9-1.2,1.2 c-0.5,0.3-1.1,0.6-1.8,0.8c-0.3,0.1-0.7,0.1-1,0.2c-0.3,0-0.7,0-1-0.1c-0.3,0-0.6-0.1-0.9-0.2c-0.3-0.1-0.5-0.2-0.7-0.4l0.4-1.2 c0-0.1,0.1-0.3,0.2-0.3c0.1-0.1,0.2-0.2,0.4-0.2c0.1,0,0.3,0,0.4,0c0.1,0.1,0.3,0.1,0.5,0.2c0.2,0.1,0.4,0.1,0.7,0.2 c0.3,0,0.6,0,0.9-0.1c0.3-0.1,0.5-0.2,0.7-0.3c0.2-0.1,0.4-0.3,0.5-0.5c0.1-0.2,0.2-0.4,0.2-0.6c0-0.2,0-0.4,0-0.6 c-0.1-0.2-0.2-0.4-0.3-0.6c-0.2-0.1-0.4-0.2-0.6-0.3c-0.2-0.1-0.5-0.1-0.8-0.1c-0.3,0-0.6-0.1-0.9-0.1c-0.3,0-0.6-0.1-0.9-0.1 c-0.3-0.1-0.6-0.2-0.8-0.3c-0.3-0.1-0.5-0.3-0.7-0.6c-0.2-0.2-0.3-0.6-0.4-1c-0.1-0.5-0.1-1-0.1-1.5c0.1-0.5,0.2-1,0.5-1.4 c0.3-0.4,0.6-0.8,1.1-1.2c0.5-0.3,1-0.6,1.7-0.8c0.7-0.2,1.3-0.2,1.9-0.1c0.6,0.1,1.1,0.3,1.6,0.6L98.2,18.4z"/>
	<path d="M103.4,15l1.4,11.3l-2.6,0.7l-1.4-11.3L103.4,15z M103.2,11.6c0.1,0.2,0.1,0.5,0,0.7c0,0.2-0.1,0.4-0.2,0.6 c-0.1,0.2-0.3,0.4-0.4,0.5s-0.4,0.2-0.6,0.3c-0.2,0.1-0.4,0.1-0.6,0c-0.2,0-0.4-0.1-0.6-0.2c-0.2-0.1-0.4-0.3-0.5-0.4 c-0.1-0.2-0.2-0.4-0.3-0.6c-0.1-0.2-0.1-0.5,0-0.7c0-0.2,0.1-0.4,0.2-0.6c0.1-0.2,0.3-0.4,0.4-0.5c0.2-0.1,0.4-0.2,0.6-0.3 c0.2-0.1,0.4-0.1,0.7,0c0.2,0,0.4,0.1,0.6,0.2c0.2,0.1,0.4,0.3,0.5,0.4C103.1,11.2,103.2,11.4,103.2,11.6z"/>
	<path d="M115,14.7c0.1,0.5,0.1,1,0,1.4c-0.1,0.5-0.4,0.9-0.8,1.4c-0.4,0.4-1,0.9-1.8,1.3c-0.8,0.4-1.9,0.9-3.2,1.4l0,0.1 c0.4,1.7,1.4,2.4,2.8,2c0.3-0.1,0.6-0.2,0.8-0.3c0.2-0.1,0.4-0.2,0.6-0.4c0.2-0.1,0.3-0.3,0.4-0.4c0.1-0.1,0.2-0.3,0.3-0.4 c0.1-0.1,0.2-0.2,0.3-0.3c0.1-0.1,0.2-0.2,0.4-0.2c0.1,0,0.2,0,0.3,0c0.1,0,0.2,0.1,0.3,0.1l0.9,0.6c-0.3,0.5-0.6,0.9-0.9,1.3 c-0.3,0.4-0.6,0.7-0.9,1c-0.3,0.3-0.7,0.5-1.1,0.7c-0.4,0.2-0.8,0.3-1.3,0.5c-0.6,0.2-1.2,0.2-1.8,0.1c-0.6-0.1-1.1-0.3-1.6-0.6 c-0.5-0.3-0.9-0.7-1.2-1.2c-0.3-0.5-0.6-1.1-0.8-1.8c-0.1-0.6-0.2-1.2-0.2-1.7c0-0.6,0-1.2,0.1-1.7c0.1-0.6,0.3-1.1,0.5-1.6 c0.2-0.5,0.5-1,0.9-1.4c0.4-0.4,0.8-0.8,1.2-1.1c0.5-0.3,1-0.5,1.6-0.7c0.6-0.1,1.1-0.2,1.6-0.1c0.5,0.1,0.9,0.2,1.2,0.4 c0.4,0.2,0.6,0.4,0.9,0.7C114.8,14.1,114.9,14.4,115,14.7z M111.2,14.8c-0.4,0.1-0.7,0.2-0.9,0.5c-0.3,0.2-0.5,0.5-0.7,0.8 c-0.2,0.3-0.3,0.7-0.4,1.1c-0.1,0.4-0.1,0.8-0.1,1.3c0.9-0.3,1.5-0.7,2-0.9c0.5-0.3,0.9-0.5,1.1-0.8c0.3-0.2,0.4-0.5,0.4-0.7 c0-0.2,0-0.4,0-0.7c0-0.1-0.1-0.2-0.2-0.3c-0.1-0.1-0.2-0.2-0.3-0.2c-0.1-0.1-0.3-0.1-0.4-0.1C111.6,14.7,111.4,14.7,111.2,14.8z M114,10.7l-1.7,0.4c-0.1,0-0.2,0-0.3,0c-0.1,0-0.2,0-0.2-0.1l-1.1-0.8c-0.1,0-0.1-0.1-0.2-0.2c0,0.1-0.1,0.1-0.1,0.1 c0,0-0.1,0.1-0.1,0.1l-0.9,1.3c0,0.1-0.1,0.1-0.2,0.2c-0.1,0.1-0.2,0.1-0.3,0.1l-1.8,0.4l1.9-3.6l2.4-0.6L114,10.7z"/>
</svg>
