<svg version="1.1" x="0px" y="0px" viewBox="0 0 200 119" style="enable-background:new 0 0 200 119;" xml:space="preserve">
	<polygon points="135,7 135,13 195,13 195,114 5,114 5,13 63,13 63,7 0,7 0,119 200,119 200,7 	"/>
	<path d="M25.7,44.7L31,31.6h5l-8.3,20.6h-3.9l-8.3-20.6h5L25.7,44.7z"/>
	<path d="M38.4,31.6H43v20.6h-4.6V31.6z"/>
	<path d="M65.4,49.4c-2.1,2-4.7,3.1-7.7,3.1c-3,0-5.6-1-7.7-3.1s-3.1-4.6-3.1-7.6s1-5.6,3.1-7.6c2.1-2,4.7-3.1,7.7-3.1 c3,0,5.6,1,7.7,3.1c2.1,2,3.1,4.6,3.1,7.6S67.5,47.3,65.4,49.4z M63.9,41.8c0-1.8-0.6-3.4-1.8-4.7c-1.2-1.3-2.6-1.9-4.4-1.9 c-1.7,0-3.2,0.6-4.4,1.9c-1.2,1.3-1.8,2.9-1.8,4.7s0.6,3.4,1.8,4.7c1.2,1.3,2.6,1.9,4.4,1.9c1.7,0,3.2-0.6,4.4-1.9 C63.3,45.2,63.9,43.6,63.9,41.8z"/>
	<path d="M72.5,52.2V31.6h4.6v16.5h8.8v4.1H72.5z"/>
	<path d="M104.1,31.6v4.1H93.8v4.2h9.2v3.9h-9.2v4.3h10.6v4.1H89.2V31.6H104.1z M93.7,29.5h-3.6l3.3-4.7h5.5l3.3,4.7h-3.6 l-2.5-2.4L93.7,29.5z"/>
	<path d="M122.9,31.6h4.6v20.6h-4.6l-9.8-12.9v12.9h-4.6V31.6h4.3l10.1,13.3V31.6z"/>
	<path d="M142.1,48.1c2.3,0,4.1-0.9,5.5-2.7l3,3c-2.3,2.6-5.1,4-8.3,4s-5.8-1-7.8-3c-2.1-2-3.1-4.5-3.1-7.6s1-5.6,3.1-7.7 c2.1-2,4.7-3.1,7.7-3.1c3.4,0,6.2,1.3,8.5,3.9l-2.9,3.2c-1.5-1.8-3.3-2.7-5.4-2.7c-1.7,0-3.2,0.6-4.4,1.7 c-1.2,1.1-1.8,2.7-1.8,4.6c0,1.9,0.6,3.5,1.7,4.6C139,47.6,140.4,48.1,142.1,48.1z"/>
	<path d="M154.2,31.6h4.6v20.6h-4.6V31.6z"/>
	<path d="M178.6,52.2l-1.9-4.5H168l-1.9,4.5h-4.9l8.9-20.6h4.5l8.9,20.6H178.6z M172.3,37.7l-2.6,6h5.2L172.3,37.7z"/>
	<path d="M31.5,90.7l-3.8,7.7h-1.9L22,90.7v8.9h-3.1V85.4h4.3l3.6,7.7l3.6-7.7h4.2v14.1h-3.1V90.7z"/>
	<path d="M49.1,95.9c0.5,0.7,1.2,1,2.1,1c0.9,0,1.6-0.3,2.1-1c0.5-0.7,0.8-1.5,0.8-2.7v-7.8h3.1v7.9c0,2-0.6,3.6-1.7,4.7 c-1.1,1.1-2.6,1.6-4.3,1.6c-1.8,0-3.2-0.6-4.3-1.7s-1.7-2.7-1.7-4.7v-7.9h3.1v7.8C48.3,94.4,48.5,95.2,49.1,95.9z"/>
	<path d="M67.7,99.5V85.4h3.1v11.3h6v2.8H67.7z"/>
	<path d="M95.2,85.4h3.1v14.1h-3.1V94h-5.6v5.5h-3.1V85.4h3.1v5.9h5.6V85.4z"/>
	<path d="M119.2,85.4v2.8h-7v2.9h6.3v2.7h-6.3v2.9h7.2v2.8H109V85.4H119.2z"/>
	<path d="M140.9,90.1c0,2.3-0.9,3.7-2.7,4.4l3.6,5h-3.9l-3.1-4.5h-2.2v4.5h-3.1V85.4h5.3c2.2,0,3.8,0.4,4.7,1.1 C140.4,87.3,140.9,88.5,140.9,90.1z M137.1,91.8c0.4-0.3,0.6-0.9,0.6-1.7c0-0.8-0.2-1.3-0.6-1.6c-0.4-0.3-1.1-0.4-2.1-0.4h-2.4 v4.2h2.3C136,92.3,136.7,92.1,137.1,91.8z"/>
	<path d="M161.6,85.4v2.8h-7v2.9h6.3v2.7h-6.3v2.9h7.2v2.8h-10.4V85.4H161.6z"/>
	<path d="M175.1,88.3c-0.3,0.2-0.5,0.6-0.5,1s0.2,0.7,0.6,1c0.4,0.2,1.2,0.5,2.6,0.9c1.3,0.3,2.4,0.8,3.1,1.5s1.1,1.6,1.1,2.9 c0,1.3-0.5,2.3-1.4,3.1c-0.9,0.8-2.2,1.2-3.7,1.2c-2.2,0-4.2-0.8-6-2.5l1.9-2.3c1.5,1.3,2.9,2,4.2,2c0.6,0,1-0.1,1.4-0.4 c0.3-0.2,0.5-0.6,0.5-1c0-0.4-0.2-0.8-0.5-1c-0.3-0.2-1-0.5-2.1-0.8c-1.6-0.4-2.8-0.9-3.6-1.5c-0.8-0.6-1.1-1.6-1.1-2.9 s0.5-2.4,1.4-3.1s2.2-1.1,3.6-1.1c0.9,0,1.9,0.2,2.8,0.5s1.8,0.8,2.5,1.4l-1.6,2.3c-1.2-0.9-2.5-1.4-3.8-1.4 C175.8,87.9,175.4,88,175.1,88.3z"/>
	<path d="M25.5,74.6c2,0,3.6-0.8,4.9-2.4l2.6,2.7c-2.1,2.3-4.5,3.5-7.3,3.5c-2.8,0-5.1-0.9-6.9-2.6c-1.8-1.8-2.7-4-2.7-6.7 s0.9-4.9,2.8-6.7c1.8-1.8,4.1-2.7,6.7-2.7c3,0,5.5,1.1,7.5,3.4l-2.5,2.8c-1.3-1.6-2.9-2.4-4.8-2.4c-1.5,0-2.8,0.5-3.9,1.5 c-1.1,1-1.6,2.3-1.6,4c0,1.7,0.5,3,1.5,4.1C22.8,74.1,24.1,74.6,25.5,74.6z"/>
	<path d="M52.6,75.7c-1.8,1.8-4.1,2.7-6.8,2.7c-2.7,0-4.9-0.9-6.8-2.7c-1.8-1.8-2.7-4-2.7-6.7s0.9-4.9,2.7-6.7 c1.8-1.8,4.1-2.7,6.8-2.7c2.7,0,4.9,0.9,6.8,2.7c1.8,1.8,2.7,4,2.7,6.7S54.4,73.9,52.6,75.7z M51.2,69.1c0-1.6-0.5-3-1.6-4.1 c-1-1.1-2.3-1.7-3.8-1.7c-1.5,0-2.8,0.6-3.8,1.7c-1,1.1-1.6,2.5-1.6,4.1s0.5,3,1.6,4.1s2.3,1.7,3.8,1.7c1.5,0,2.8-0.6,3.8-1.7 S51.2,70.7,51.2,69.1z"/>
	<path d="M72.9,60.1h4v18.1h-4l-8.6-11.3v11.3h-4V60.1h3.8l8.9,11.7V60.1z"/>
	<path d="M90.6,63.6v14.6h-4V63.6h-5.1v-3.5h14.3v3.5H90.6z"/>
	<path d="M115,66.1c0,2.9-1.1,4.8-3.4,5.6l4.6,6.5h-5l-4-5.8h-2.8v5.8h-4V60.1h6.9c2.8,0,4.8,0.5,6,1.4 C114.4,62.5,115,64,115,66.1z M110.1,68.3c0.5-0.4,0.8-1.2,0.8-2.1s-0.3-1.6-0.8-2s-1.4-0.5-2.7-0.5h-3v5.4h3 C108.6,68.9,109.6,68.7,110.1,68.3z"/>
	<path d="M133.5,78.2l-1.7-3.9h-7.6l-1.7,3.9h-4.3l7.8-18.1h3.9l7.8,18.1H133.5z M128.1,65.5l-2.3,5.3h4.5L128.1,65.5z"/>
	<path d="M162.8,78.2l-1.7-3.9h-7.6l-1.7,3.9h-4.3l7.8-18.1h3.9l7.8,18.1H162.8z M157.3,65.5l-2.3,5.3h4.5L157.3,65.5z"/>
	<path d="M174.8,63.7c-0.4,0.3-0.6,0.7-0.6,1.3s0.2,0.9,0.7,1.3s1.6,0.7,3.3,1.1c1.7,0.4,3.1,1.1,4,1.9s1.4,2.1,1.4,3.7 c0,1.6-0.6,2.9-1.8,3.9s-2.8,1.5-4.8,1.5c-2.9,0-5.4-1.1-7.7-3.2l2.4-3c2,1.7,3.8,2.6,5.4,2.6c0.7,0,1.3-0.2,1.7-0.5 c0.4-0.3,0.6-0.8,0.6-1.3s-0.2-1-0.7-1.3s-1.3-0.6-2.7-1c-2.1-0.5-3.6-1.2-4.6-2s-1.5-2.1-1.5-3.8s0.6-3,1.9-4 c1.2-0.9,2.8-1.4,4.6-1.4c1.2,0,2.4,0.2,3.6,0.6c1.2,0.4,2.3,1,3.2,1.8l-2,3c-1.6-1.2-3.2-1.8-4.9-1.8 C175.8,63.2,175.2,63.4,174.8,63.7z"/>
	<path d="M78.4,16c-0.3,0-0.5-0.1-0.7-0.2c-0.1-0.1-0.2-0.3-0.2-0.6l0.1-1.6c-0.5,0.8-1.1,1.4-1.8,1.9c-0.7,0.5-1.3,0.7-2.1,0.7 c-0.5,0-0.9-0.1-1.2-0.2c-0.4-0.2-0.7-0.4-1-0.7c-0.3-0.3-0.5-0.8-0.6-1.3c-0.1-0.5-0.2-1.1-0.2-1.8c0-0.6,0.1-1.2,0.2-1.8 c0.1-0.6,0.3-1.2,0.5-1.7s0.5-1,0.8-1.5C72.7,6.7,73,6.3,73.4,6c0.4-0.3,0.8-0.6,1.3-0.8C75.2,5.1,75.6,5,76.1,5 c0.5,0,0.9,0.1,1.3,0.3c0.4,0.2,0.7,0.4,1,0.7l0.7-5.7h2.6L79.8,16H78.4z M74.8,14.1c0.3,0,0.6-0.1,0.9-0.3 c0.3-0.2,0.6-0.5,0.9-0.8c0.3-0.3,0.5-0.7,0.8-1.2c0.2-0.5,0.4-1,0.6-1.5l0.3-2.6c-0.2-0.3-0.5-0.4-0.8-0.6C77.1,7,76.8,7,76.5,7 c-0.5,0-0.9,0.1-1.3,0.4c-0.4,0.3-0.7,0.7-1,1.1c-0.3,0.5-0.5,1-0.6,1.6c-0.1,0.6-0.2,1.2-0.2,1.8c0,0.8,0.1,1.3,0.4,1.7 S74.4,14.1,74.8,14.1z"/>
	<path d="M86.9,16.2c-0.6,0-1.2-0.1-1.7-0.3c-0.5-0.2-1-0.5-1.3-0.9s-0.7-0.9-0.9-1.4c-0.2-0.6-0.3-1.2-0.3-1.9 c0-0.9,0.2-1.8,0.5-2.6s0.7-1.5,1.2-2.1c0.5-0.6,1.1-1.1,1.8-1.4C86.9,5.1,87.6,5,88.4,5c0.6,0,1.2,0.1,1.7,0.3 c0.5,0.2,1,0.5,1.3,0.9s0.7,0.9,0.9,1.4c0.2,0.6,0.3,1.2,0.3,1.9c0,0.9-0.2,1.8-0.5,2.6c-0.3,0.8-0.7,1.5-1.2,2.1 s-1.1,1.1-1.8,1.4C88.4,16,87.6,16.2,86.9,16.2z M87.1,14.2c0.4,0,0.8-0.1,1.2-0.4c0.4-0.3,0.7-0.6,0.9-1 c0.3-0.4,0.4-0.9,0.6-1.5c0.1-0.6,0.2-1.1,0.2-1.8c0-0.9-0.2-1.5-0.5-2C89.2,7.2,88.8,7,88.2,7c-0.4,0-0.8,0.1-1.2,0.4 s-0.7,0.6-0.9,1s-0.4,0.9-0.6,1.5s-0.2,1.2-0.2,1.8c0,0.9,0.1,1.5,0.4,1.9C86,14,86.5,14.2,87.1,14.2z"/>
	<path d="M101.2,7.2c-0.1,0.1-0.2,0.2-0.2,0.2c-0.1,0-0.2,0.1-0.3,0.1c-0.1,0-0.2,0-0.4-0.1c-0.1-0.1-0.3-0.2-0.4-0.2 c-0.2-0.1-0.4-0.2-0.6-0.2c-0.2-0.1-0.5-0.1-0.8-0.1c-0.6,0-1,0.1-1.3,0.4c-0.3,0.3-0.4,0.6-0.4,0.9c0,0.2,0.1,0.4,0.2,0.6 c0.1,0.2,0.3,0.3,0.5,0.4s0.4,0.2,0.7,0.3c0.3,0.1,0.5,0.2,0.8,0.3c0.3,0.1,0.5,0.2,0.8,0.4c0.3,0.1,0.5,0.3,0.7,0.5 c0.2,0.2,0.4,0.4,0.5,0.7c0.1,0.3,0.2,0.6,0.2,1c0,0.5-0.1,1-0.3,1.5c-0.2,0.5-0.5,0.9-0.9,1.2s-0.9,0.6-1.4,0.8 c-0.6,0.2-1.2,0.3-1.8,0.3c-0.3,0-0.7,0-1-0.1c-0.3-0.1-0.6-0.2-0.9-0.3c-0.3-0.1-0.5-0.3-0.8-0.4c-0.2-0.2-0.4-0.3-0.6-0.5 l0.6-1c0.1-0.1,0.2-0.2,0.3-0.3c0.1-0.1,0.2-0.1,0.4-0.1c0.1,0,0.3,0,0.4,0.1c0.1,0.1,0.3,0.2,0.4,0.3c0.2,0.1,0.4,0.2,0.6,0.3 s0.5,0.1,0.9,0.1c0.3,0,0.5,0,0.8-0.1c0.2-0.1,0.4-0.2,0.6-0.3c0.2-0.1,0.3-0.3,0.3-0.5c0.1-0.2,0.1-0.4,0.1-0.6 c0-0.2-0.1-0.4-0.2-0.6c-0.1-0.2-0.3-0.3-0.5-0.4c-0.2-0.1-0.4-0.2-0.7-0.3c-0.3-0.1-0.5-0.2-0.8-0.3c-0.3-0.1-0.5-0.2-0.8-0.3 c-0.3-0.1-0.5-0.3-0.7-0.5c-0.2-0.2-0.4-0.4-0.5-0.7c-0.1-0.3-0.2-0.6-0.2-1c0-0.5,0.1-1,0.3-1.4s0.5-0.9,0.8-1.2 c0.4-0.4,0.8-0.6,1.3-0.8C97.5,5.1,98.1,5,98.7,5c0.7,0,1.3,0.1,1.8,0.4c0.5,0.2,1,0.5,1.4,0.9L101.2,7.2z"/>
	<path d="M110,7.2c-0.1,0.1-0.2,0.2-0.2,0.2c-0.1,0-0.2,0.1-0.3,0.1c-0.1,0-0.2,0-0.4-0.1c-0.1-0.1-0.3-0.2-0.4-0.2 c-0.2-0.1-0.4-0.2-0.6-0.2c-0.2-0.1-0.5-0.1-0.8-0.1c-0.6,0-1,0.1-1.3,0.4c-0.3,0.3-0.4,0.6-0.4,0.9c0,0.2,0.1,0.4,0.2,0.6 c0.1,0.2,0.3,0.3,0.5,0.4c0.2,0.1,0.4,0.2,0.7,0.3s0.5,0.2,0.8,0.3c0.3,0.1,0.5,0.2,0.8,0.4c0.3,0.1,0.5,0.3,0.7,0.5 s0.4,0.4,0.5,0.7c0.1,0.3,0.2,0.6,0.2,1c0,0.5-0.1,1-0.3,1.5s-0.5,0.9-0.9,1.2c-0.4,0.4-0.9,0.6-1.4,0.8 c-0.6,0.2-1.2,0.3-1.8,0.3c-0.3,0-0.7,0-1-0.1s-0.6-0.2-0.9-0.3c-0.3-0.1-0.5-0.3-0.8-0.4c-0.2-0.2-0.4-0.3-0.6-0.5l0.6-1 c0.1-0.1,0.2-0.2,0.3-0.3c0.1-0.1,0.2-0.1,0.4-0.1s0.3,0,0.4,0.1c0.1,0.1,0.3,0.2,0.4,0.3c0.2,0.1,0.4,0.2,0.6,0.3 c0.2,0.1,0.5,0.1,0.9,0.1c0.3,0,0.5,0,0.8-0.1c0.2-0.1,0.4-0.2,0.6-0.3s0.3-0.3,0.3-0.5c0.1-0.2,0.1-0.4,0.1-0.6 c0-0.2-0.1-0.4-0.2-0.6c-0.1-0.2-0.3-0.3-0.5-0.4c-0.2-0.1-0.4-0.2-0.7-0.3c-0.3-0.1-0.5-0.2-0.8-0.3c-0.3-0.1-0.5-0.2-0.8-0.3 c-0.3-0.1-0.5-0.3-0.7-0.5c-0.2-0.2-0.4-0.4-0.5-0.7c-0.1-0.3-0.2-0.6-0.2-1c0-0.5,0.1-1,0.3-1.4c0.2-0.5,0.5-0.9,0.8-1.2 c0.4-0.4,0.8-0.6,1.3-0.8s1.1-0.3,1.8-0.3c0.7,0,1.3,0.1,1.8,0.4c0.5,0.2,1,0.5,1.4,0.9L110,7.2z"/>
	<path d="M115.7,5.1L114.4,16h-2.6l1.3-10.9H115.7z M116.3,2c0,0.2,0,0.4-0.1,0.6c-0.1,0.2-0.2,0.4-0.4,0.5 c-0.2,0.1-0.3,0.3-0.5,0.4c-0.2,0.1-0.4,0.1-0.6,0.1c-0.2,0-0.4,0-0.6-0.1c-0.2-0.1-0.4-0.2-0.5-0.4c-0.1-0.1-0.3-0.3-0.4-0.5 c-0.1-0.2-0.1-0.4-0.1-0.6s0-0.4,0.1-0.6s0.2-0.4,0.4-0.5c0.1-0.2,0.3-0.3,0.5-0.4c0.2-0.1,0.4-0.1,0.6-0.1c0.2,0,0.4,0,0.6,0.1 s0.4,0.2,0.5,0.4c0.2,0.1,0.3,0.3,0.4,0.5C116.3,1.5,116.3,1.7,116.3,2z"/>
	<path d="M126.6,7.7c0,0.5-0.1,0.9-0.3,1.3c-0.2,0.4-0.5,0.8-1,1.1c-0.5,0.3-1.2,0.6-2,0.8c-0.9,0.2-2,0.4-3.3,0.5v0.1 c0,1.7,0.7,2.6,2.2,2.6c0.3,0,0.6,0,0.8-0.1c0.2-0.1,0.5-0.1,0.6-0.2c0.2-0.1,0.3-0.2,0.5-0.3c0.1-0.1,0.3-0.2,0.4-0.3 c0.1-0.1,0.2-0.2,0.4-0.2c0.1-0.1,0.3-0.1,0.4-0.1c0.1,0,0.2,0,0.3,0.1c0.1,0,0.2,0.1,0.2,0.2l0.7,0.8c-0.4,0.4-0.7,0.7-1.1,1 c-0.4,0.3-0.7,0.5-1.1,0.7s-0.8,0.3-1.2,0.4c-0.4,0.1-0.9,0.1-1.4,0.1c-0.6,0-1.2-0.1-1.7-0.3s-1-0.5-1.3-0.9 c-0.4-0.4-0.7-0.9-0.9-1.4c-0.2-0.6-0.3-1.2-0.3-1.9c0-0.6,0.1-1.1,0.2-1.7c0.1-0.6,0.3-1.1,0.5-1.6s0.5-1,0.9-1.4 c0.3-0.4,0.7-0.8,1.2-1.1c0.4-0.3,0.9-0.5,1.4-0.7c0.5-0.2,1.1-0.3,1.7-0.3c0.6,0,1.1,0.1,1.5,0.2c0.4,0.2,0.8,0.4,1.1,0.6 c0.3,0.3,0.5,0.5,0.6,0.9C126.5,7,126.6,7.4,126.6,7.7z M126.7,3.6H125c-0.1,0-0.2,0-0.3-0.1c-0.1,0-0.2-0.1-0.2-0.1l-0.9-1.1 c-0.1-0.1-0.1-0.1-0.2-0.2c0,0-0.1,0.1-0.1,0.1c0,0-0.1,0.1-0.1,0.1l-1.1,1.1c-0.1,0-0.1,0.1-0.2,0.1s-0.2,0.1-0.3,0.1h-1.8 l2.6-2.9h2.4L126.7,3.6z M123,6.8c-0.4,0-0.7,0.1-1,0.2c-0.3,0.1-0.6,0.3-0.8,0.6c-0.2,0.3-0.5,0.6-0.6,0.9 c-0.2,0.4-0.3,0.8-0.4,1.2c0.9-0.1,1.6-0.3,2.1-0.4c0.5-0.1,0.9-0.3,1.2-0.5c0.3-0.2,0.5-0.4,0.6-0.5c0.1-0.2,0.1-0.4,0.1-0.6 c0-0.1,0-0.2-0.1-0.3s-0.1-0.2-0.2-0.3s-0.2-0.2-0.4-0.2C123.4,6.8,123.3,6.8,123,6.8z"/>
</svg>
